# xmcd
#
# Track frame offsets: 
#        150
#        19019
#        39763
#        59515
#        91115
#        111304
#        121574
#        138333
#        163485
#        173645
#        187175
#        213269
#        231175
#        252979
#        262595
#        281263
#        300136
#        314101
#        333261
#
# Disc length: 4729 seconds
#
# Revision: 0
# Processed by: cddbd v1.5.1PL2 Copyright (c) Steve Scherf et al.
# Submitted via: ExactAudioCopy v0.95b4
#
DISCID=fb127713
DTITLE=ENIGMA - VOYAGEUR
DYEAR=2003
DGENRE=Pop
TTITLE0=From East to West
TTITLE1=Voyageur
TTITLE2=Incognito
TTITLE3=Page of Cups
TTITLE4=Boum-Boum
TTITLE5=Total Eclipse of the Moon
TTITLE6=Look of Today
TTITLE7=In The Shadow, In The Light
TTITLE8=Weightless
TTITLE9=The Piano
TTITLE10=Following The Sun
TTITLE11=The Screen Behind The Mirror
TTITLE12=Beyond The Invisible
TTITLE13=The Voice of Enigma
TTITLE14=Sadness
TTITLE15=Traces
TTITLE16=Endless Quest
TTITLE17=Return to Innocence
TTITLE18=Mea Culpa
EXTD=
EXTT0=
EXTT1=
EXTT2=
EXTT3=
EXTT4=
EXTT5=
EXTT6=
EXTT7=
EXTT8=
EXTT9=
EXTT10=
EXTT11=
EXTT12=
EXTT13=
EXTT14=
EXTT15=
EXTT16=
EXTT17=
EXTT18=
PLAYORDER=
